<mxfile host="app.diagrams.net" modified="2024-03-17T20:36:33.718Z" agent="Mozilla/5.0 (Windows NT 10.0; Win64; x64) AppleWebKit/537.36 (KHTML, like Gecko) Chrome/122.0.0.0 Safari/537.36" etag="6A7pBw9gC7iGTvkoVrjI" version="24.0.7" type="github">
  <diagram id="C5RBs43oDa-KdzZeNtuy" name="Page-1">
    <mxGraphModel dx="1434" dy="786" grid="1" gridSize="10" guides="1" tooltips="1" connect="1" arrows="1" fold="1" page="1" pageScale="1" pageWidth="827" pageHeight="1169" math="0" shadow="0">
      <root>
        <mxCell id="WIyWlLk6GJQsqaUBKTNV-0" />
        <mxCell id="WIyWlLk6GJQsqaUBKTNV-1" parent="WIyWlLk6GJQsqaUBKTNV-0" />
        <mxCell id="9PHeEGNohPRG5MEMTAq7-101" value="" style="html=1;whiteSpace=wrap;" vertex="1" parent="WIyWlLk6GJQsqaUBKTNV-1">
          <mxGeometry x="12" y="627.5" width="803" height="467.5" as="geometry" />
        </mxCell>
        <mxCell id="9PHeEGNohPRG5MEMTAq7-102" value="" style="html=1;whiteSpace=wrap;" vertex="1" parent="WIyWlLk6GJQsqaUBKTNV-1">
          <mxGeometry x="12" y="10" width="803" height="555" as="geometry" />
        </mxCell>
        <mxCell id="9PHeEGNohPRG5MEMTAq7-103" value="" style="rounded=0;whiteSpace=wrap;html=1;" vertex="1" parent="WIyWlLk6GJQsqaUBKTNV-1">
          <mxGeometry x="85" y="27.5" width="720" height="160" as="geometry" />
        </mxCell>
        <mxCell id="9PHeEGNohPRG5MEMTAq7-104" value="Chess layer" style="text;html=1;align=center;verticalAlign=middle;whiteSpace=wrap;rounded=0;" vertex="1" parent="WIyWlLk6GJQsqaUBKTNV-1">
          <mxGeometry x="15" y="10" width="70" height="30" as="geometry" />
        </mxCell>
        <mxCell id="9PHeEGNohPRG5MEMTAq7-105" value="ChessException" style="swimlane;fontStyle=1;align=center;verticalAlign=top;childLayout=stackLayout;horizontal=1;startSize=26;horizontalStack=0;resizeParent=1;resizeParentMax=0;resizeLast=0;collapsible=1;marginBottom=0;whiteSpace=wrap;html=1;" vertex="1" parent="WIyWlLk6GJQsqaUBKTNV-1">
          <mxGeometry x="105" y="75" width="220" height="60" as="geometry" />
        </mxCell>
        <mxCell id="9PHeEGNohPRG5MEMTAq7-106" value="" style="line;strokeWidth=1;fillColor=none;align=left;verticalAlign=middle;spacingTop=-1;spacingLeft=3;spacingRight=3;rotatable=0;labelPosition=right;points=[];portConstraint=eastwest;strokeColor=inherit;" vertex="1" parent="9PHeEGNohPRG5MEMTAq7-105">
          <mxGeometry y="26" width="220" height="8" as="geometry" />
        </mxCell>
        <mxCell id="9PHeEGNohPRG5MEMTAq7-107" value="+ ChessException(msg: String) : void" style="text;strokeColor=none;fillColor=none;align=left;verticalAlign=top;spacingLeft=4;spacingRight=4;overflow=hidden;rotatable=0;points=[[0,0.5],[1,0.5]];portConstraint=eastwest;whiteSpace=wrap;html=1;" vertex="1" parent="9PHeEGNohPRG5MEMTAq7-105">
          <mxGeometry y="34" width="220" height="26" as="geometry" />
        </mxCell>
        <mxCell id="9PHeEGNohPRG5MEMTAq7-108" value="&lt;div&gt;&lt;span style=&quot;font-weight: 400;&quot;&gt;&amp;lt;&amp;lt;enum&amp;gt;&amp;gt;&lt;/span&gt;&lt;/div&gt;Color" style="swimlane;fontStyle=1;align=center;verticalAlign=top;childLayout=stackLayout;horizontal=1;startSize=40;horizontalStack=0;resizeParent=1;resizeParentMax=0;resizeLast=0;collapsible=1;marginBottom=0;whiteSpace=wrap;html=1;" vertex="1" parent="WIyWlLk6GJQsqaUBKTNV-1">
          <mxGeometry x="359" y="55.5" width="100" height="104" as="geometry" />
        </mxCell>
        <mxCell id="9PHeEGNohPRG5MEMTAq7-109" value="- BLACK : int&lt;div&gt;- WHITE : int&lt;/div&gt;" style="text;strokeColor=none;fillColor=none;align=left;verticalAlign=top;spacingLeft=4;spacingRight=4;overflow=hidden;rotatable=0;points=[[0,0.5],[1,0.5]];portConstraint=eastwest;whiteSpace=wrap;html=1;" vertex="1" parent="9PHeEGNohPRG5MEMTAq7-108">
          <mxGeometry y="40" width="100" height="40" as="geometry" />
        </mxCell>
        <mxCell id="9PHeEGNohPRG5MEMTAq7-110" value="" style="line;strokeWidth=1;fillColor=none;align=left;verticalAlign=middle;spacingTop=-1;spacingLeft=3;spacingRight=3;rotatable=0;labelPosition=right;points=[];portConstraint=eastwest;strokeColor=inherit;" vertex="1" parent="9PHeEGNohPRG5MEMTAq7-108">
          <mxGeometry y="80" width="100" height="24" as="geometry" />
        </mxCell>
        <mxCell id="9PHeEGNohPRG5MEMTAq7-111" value="ChessPosition" style="swimlane;fontStyle=1;align=center;verticalAlign=top;childLayout=stackLayout;horizontal=1;startSize=26;horizontalStack=0;resizeParent=1;resizeParentMax=0;resizeLast=0;collapsible=1;marginBottom=0;whiteSpace=wrap;html=1;" vertex="1" parent="WIyWlLk6GJQsqaUBKTNV-1">
          <mxGeometry x="485" y="55.5" width="280" height="120" as="geometry" />
        </mxCell>
        <mxCell id="9PHeEGNohPRG5MEMTAq7-112" value="- column : char&lt;div&gt;- row : int&lt;/div&gt;" style="text;strokeColor=none;fillColor=none;align=left;verticalAlign=top;spacingLeft=4;spacingRight=4;overflow=hidden;rotatable=0;points=[[0,0.5],[1,0.5]];portConstraint=eastwest;whiteSpace=wrap;html=1;" vertex="1" parent="9PHeEGNohPRG5MEMTAq7-111">
          <mxGeometry y="26" width="280" height="34" as="geometry" />
        </mxCell>
        <mxCell id="9PHeEGNohPRG5MEMTAq7-113" value="" style="line;strokeWidth=1;fillColor=none;align=left;verticalAlign=middle;spacingTop=-1;spacingLeft=3;spacingRight=3;rotatable=0;labelPosition=right;points=[];portConstraint=eastwest;strokeColor=inherit;" vertex="1" parent="9PHeEGNohPRG5MEMTAq7-111">
          <mxGeometry y="60" width="280" height="18" as="geometry" />
        </mxCell>
        <mxCell id="9PHeEGNohPRG5MEMTAq7-114" value="# toPosition() : Position&lt;div&gt;# fromPosition(position : Position): ChessPosition&lt;/div&gt;" style="text;strokeColor=none;fillColor=none;align=left;verticalAlign=top;spacingLeft=4;spacingRight=4;overflow=hidden;rotatable=0;points=[[0,0.5],[1,0.5]];portConstraint=eastwest;whiteSpace=wrap;html=1;" vertex="1" parent="9PHeEGNohPRG5MEMTAq7-111">
          <mxGeometry y="78" width="280" height="42" as="geometry" />
        </mxCell>
        <mxCell id="9PHeEGNohPRG5MEMTAq7-115" value="ChessMatch&lt;div&gt;&lt;br&gt;&lt;/div&gt;" style="swimlane;fontStyle=1;align=center;verticalAlign=top;childLayout=stackLayout;horizontal=1;startSize=26;horizontalStack=0;resizeParent=1;resizeParentMax=0;resizeLast=0;collapsible=1;marginBottom=0;whiteSpace=wrap;html=1;" vertex="1" parent="WIyWlLk6GJQsqaUBKTNV-1">
          <mxGeometry x="15" y="325" width="450" height="190" as="geometry" />
        </mxCell>
        <mxCell id="9PHeEGNohPRG5MEMTAq7-116" value="&lt;font style=&quot;font-size: 10px;&quot;&gt;- turn : int&lt;/font&gt;&lt;div style=&quot;font-size: 10px;&quot;&gt;&lt;font style=&quot;font-size: 10px;&quot;&gt;- currentPlayer : Color&lt;/font&gt;&lt;/div&gt;&lt;div style=&quot;font-size: 10px;&quot;&gt;&lt;font style=&quot;font-size: 10px;&quot;&gt;- check : boolean&lt;/font&gt;&lt;/div&gt;&lt;div style=&quot;font-size: 10px;&quot;&gt;&lt;font style=&quot;font-size: 10px;&quot;&gt;- checkMate : boolean&lt;/font&gt;&lt;/div&gt;&lt;div style=&quot;font-size: 10px;&quot;&gt;&lt;font style=&quot;font-size: 10px;&quot;&gt;- enPassantVulnerable : ChessPiece&lt;/font&gt;&lt;/div&gt;&lt;div style=&quot;font-size: 10px;&quot;&gt;&lt;font style=&quot;font-size: 10px;&quot;&gt;- promoted : ChessPiece&lt;/font&gt;&lt;/div&gt;" style="text;strokeColor=none;fillColor=none;align=left;verticalAlign=top;spacingLeft=4;spacingRight=4;overflow=hidden;rotatable=0;points=[[0,0.5],[1,0.5]];portConstraint=eastwest;whiteSpace=wrap;html=1;" vertex="1" parent="9PHeEGNohPRG5MEMTAq7-115">
          <mxGeometry y="26" width="450" height="84" as="geometry" />
        </mxCell>
        <mxCell id="9PHeEGNohPRG5MEMTAq7-117" value="" style="line;strokeWidth=1;fillColor=none;align=left;verticalAlign=middle;spacingTop=-1;spacingLeft=3;spacingRight=3;rotatable=0;labelPosition=right;points=[];portConstraint=eastwest;strokeColor=inherit;" vertex="1" parent="9PHeEGNohPRG5MEMTAq7-115">
          <mxGeometry y="110" width="450" height="8" as="geometry" />
        </mxCell>
        <mxCell id="9PHeEGNohPRG5MEMTAq7-118" value="&lt;font style=&quot;font-size: 10px;&quot;&gt;+ getPieces() : ChessPiece[][]&lt;/font&gt;&lt;div style=&quot;font-size: 10px;&quot;&gt;&lt;font style=&quot;font-size: 10px;&quot;&gt;+ possibleMoves(sourcePosition : ChessPosition) : boolean[][]&amp;nbsp;&lt;/font&gt;&lt;/div&gt;&lt;div style=&quot;font-size: 10px;&quot;&gt;&lt;font style=&quot;font-size: 10px;&quot;&gt;+ performChessMove(sourcePosition : ChessPosition, targetPosition: ChessPosition): ChessPiece&lt;/font&gt;&lt;/div&gt;&lt;div style=&quot;font-size: 10px;&quot;&gt;&lt;font style=&quot;font-size: 10px;&quot;&gt;+ replacePromotedPiece(type : String) : ChessPiece&lt;/font&gt;&lt;/div&gt;" style="text;strokeColor=none;fillColor=none;align=left;verticalAlign=top;spacingLeft=4;spacingRight=4;overflow=hidden;rotatable=0;points=[[0,0.5],[1,0.5]];portConstraint=eastwest;whiteSpace=wrap;html=1;" vertex="1" parent="9PHeEGNohPRG5MEMTAq7-115">
          <mxGeometry y="118" width="450" height="72" as="geometry" />
        </mxCell>
        <mxCell id="9PHeEGNohPRG5MEMTAq7-119" value="King" style="swimlane;fontStyle=1;align=center;verticalAlign=top;childLayout=stackLayout;horizontal=1;startSize=26;horizontalStack=0;resizeParent=1;resizeParentMax=0;resizeLast=0;collapsible=1;marginBottom=0;whiteSpace=wrap;html=1;" vertex="1" parent="WIyWlLk6GJQsqaUBKTNV-1">
          <mxGeometry x="359" y="225" width="56" height="34" as="geometry" />
        </mxCell>
        <mxCell id="9PHeEGNohPRG5MEMTAq7-120" value="" style="line;strokeWidth=1;fillColor=none;align=left;verticalAlign=middle;spacingTop=-1;spacingLeft=3;spacingRight=3;rotatable=0;labelPosition=right;points=[];portConstraint=eastwest;strokeColor=inherit;" vertex="1" parent="9PHeEGNohPRG5MEMTAq7-119">
          <mxGeometry y="26" width="56" height="8" as="geometry" />
        </mxCell>
        <mxCell id="9PHeEGNohPRG5MEMTAq7-121" value="Bishop" style="swimlane;fontStyle=1;align=center;verticalAlign=top;childLayout=stackLayout;horizontal=1;startSize=26;horizontalStack=0;resizeParent=1;resizeParentMax=0;resizeLast=0;collapsible=1;marginBottom=0;whiteSpace=wrap;html=1;" vertex="1" parent="WIyWlLk6GJQsqaUBKTNV-1">
          <mxGeometry x="425" y="225" width="66" height="34" as="geometry" />
        </mxCell>
        <mxCell id="9PHeEGNohPRG5MEMTAq7-122" value="" style="line;strokeWidth=1;fillColor=none;align=left;verticalAlign=middle;spacingTop=-1;spacingLeft=3;spacingRight=3;rotatable=0;labelPosition=right;points=[];portConstraint=eastwest;strokeColor=inherit;" vertex="1" parent="9PHeEGNohPRG5MEMTAq7-121">
          <mxGeometry y="26" width="66" height="8" as="geometry" />
        </mxCell>
        <mxCell id="9PHeEGNohPRG5MEMTAq7-123" value="Knight" style="swimlane;fontStyle=1;align=center;verticalAlign=top;childLayout=stackLayout;horizontal=1;startSize=26;horizontalStack=0;resizeParent=1;resizeParentMax=0;resizeLast=0;collapsible=1;marginBottom=0;whiteSpace=wrap;html=1;" vertex="1" parent="WIyWlLk6GJQsqaUBKTNV-1">
          <mxGeometry x="505" y="225" width="74" height="34" as="geometry" />
        </mxCell>
        <mxCell id="9PHeEGNohPRG5MEMTAq7-124" value="" style="line;strokeWidth=1;fillColor=none;align=left;verticalAlign=middle;spacingTop=-1;spacingLeft=3;spacingRight=3;rotatable=0;labelPosition=right;points=[];portConstraint=eastwest;strokeColor=inherit;" vertex="1" parent="9PHeEGNohPRG5MEMTAq7-123">
          <mxGeometry y="26" width="74" height="8" as="geometry" />
        </mxCell>
        <mxCell id="9PHeEGNohPRG5MEMTAq7-125" value="Pawn" style="swimlane;fontStyle=1;align=center;verticalAlign=top;childLayout=stackLayout;horizontal=1;startSize=26;horizontalStack=0;resizeParent=1;resizeParentMax=0;resizeLast=0;collapsible=1;marginBottom=0;whiteSpace=wrap;html=1;" vertex="1" parent="WIyWlLk6GJQsqaUBKTNV-1">
          <mxGeometry x="593" y="225" width="64" height="34" as="geometry" />
        </mxCell>
        <mxCell id="9PHeEGNohPRG5MEMTAq7-126" value="" style="line;strokeWidth=1;fillColor=none;align=left;verticalAlign=middle;spacingTop=-1;spacingLeft=3;spacingRight=3;rotatable=0;labelPosition=right;points=[];portConstraint=eastwest;strokeColor=inherit;" vertex="1" parent="9PHeEGNohPRG5MEMTAq7-125">
          <mxGeometry y="26" width="64" height="8" as="geometry" />
        </mxCell>
        <mxCell id="9PHeEGNohPRG5MEMTAq7-127" value="Queen" style="swimlane;fontStyle=1;align=center;verticalAlign=top;childLayout=stackLayout;horizontal=1;startSize=26;horizontalStack=0;resizeParent=1;resizeParentMax=0;resizeLast=0;collapsible=1;marginBottom=0;whiteSpace=wrap;html=1;" vertex="1" parent="WIyWlLk6GJQsqaUBKTNV-1">
          <mxGeometry x="665" y="225" width="70" height="34" as="geometry" />
        </mxCell>
        <mxCell id="9PHeEGNohPRG5MEMTAq7-128" value="" style="line;strokeWidth=1;fillColor=none;align=left;verticalAlign=middle;spacingTop=-1;spacingLeft=3;spacingRight=3;rotatable=0;labelPosition=right;points=[];portConstraint=eastwest;strokeColor=inherit;" vertex="1" parent="9PHeEGNohPRG5MEMTAq7-127">
          <mxGeometry y="26" width="70" height="8" as="geometry" />
        </mxCell>
        <mxCell id="9PHeEGNohPRG5MEMTAq7-129" value="Rook" style="swimlane;fontStyle=1;align=center;verticalAlign=top;childLayout=stackLayout;horizontal=1;startSize=26;horizontalStack=0;resizeParent=1;resizeParentMax=0;resizeLast=0;collapsible=1;marginBottom=0;whiteSpace=wrap;html=1;" vertex="1" parent="WIyWlLk6GJQsqaUBKTNV-1">
          <mxGeometry x="742.5" y="225" width="62.5" height="34" as="geometry" />
        </mxCell>
        <mxCell id="9PHeEGNohPRG5MEMTAq7-130" value="" style="line;strokeWidth=1;fillColor=none;align=left;verticalAlign=middle;spacingTop=-1;spacingLeft=3;spacingRight=3;rotatable=0;labelPosition=right;points=[];portConstraint=eastwest;strokeColor=inherit;" vertex="1" parent="9PHeEGNohPRG5MEMTAq7-129">
          <mxGeometry y="26" width="62.5" height="8" as="geometry" />
        </mxCell>
        <mxCell id="9PHeEGNohPRG5MEMTAq7-131" value="" style="edgeStyle=elbowEdgeStyle;elbow=vertical;endArrow=classic;html=1;curved=0;rounded=0;endSize=8;startSize=8;exitX=0.5;exitY=0;exitDx=0;exitDy=0;entryX=0.42;entryY=-0.005;entryDx=0;entryDy=0;entryPerimeter=0;" edge="1" parent="WIyWlLk6GJQsqaUBKTNV-1" source="9PHeEGNohPRG5MEMTAq7-125" target="9PHeEGNohPRG5MEMTAq7-115">
          <mxGeometry width="50" height="50" relative="1" as="geometry">
            <mxPoint x="910.8200000000002" y="255" as="sourcePoint" />
            <mxPoint x="415" y="315" as="targetPoint" />
            <Array as="points">
              <mxPoint x="435" y="205" />
              <mxPoint x="660.82" y="235" />
            </Array>
          </mxGeometry>
        </mxCell>
        <mxCell id="9PHeEGNohPRG5MEMTAq7-132" value="1" style="edgeLabel;html=1;align=center;verticalAlign=middle;resizable=0;points=[];" vertex="1" connectable="0" parent="9PHeEGNohPRG5MEMTAq7-131">
          <mxGeometry x="0.9009" y="4" relative="1" as="geometry">
            <mxPoint x="-18" y="11" as="offset" />
          </mxGeometry>
        </mxCell>
        <mxCell id="9PHeEGNohPRG5MEMTAq7-133" value="- chessMatch" style="edgeLabel;html=1;align=center;verticalAlign=middle;resizable=0;points=[];" vertex="1" connectable="0" parent="9PHeEGNohPRG5MEMTAq7-131">
          <mxGeometry x="0.9233" relative="1" as="geometry">
            <mxPoint x="36" y="4" as="offset" />
          </mxGeometry>
        </mxCell>
        <mxCell id="9PHeEGNohPRG5MEMTAq7-134" value="ChessPiece&lt;div&gt;&lt;br&gt;&lt;/div&gt;" style="swimlane;fontStyle=1;align=center;verticalAlign=top;childLayout=stackLayout;horizontal=1;startSize=26;horizontalStack=0;resizeParent=1;resizeParentMax=0;resizeLast=0;collapsible=1;marginBottom=0;whiteSpace=wrap;html=1;" vertex="1" parent="WIyWlLk6GJQsqaUBKTNV-1">
          <mxGeometry x="491" y="350" width="310" height="150" as="geometry" />
        </mxCell>
        <mxCell id="9PHeEGNohPRG5MEMTAq7-135" value="- color: Color&lt;div&gt;- moveCount: int&lt;/div&gt;" style="text;strokeColor=none;fillColor=none;align=left;verticalAlign=top;spacingLeft=4;spacingRight=4;overflow=hidden;rotatable=0;points=[[0,0.5],[1,0.5]];portConstraint=eastwest;whiteSpace=wrap;html=1;" vertex="1" parent="9PHeEGNohPRG5MEMTAq7-134">
          <mxGeometry y="26" width="310" height="44" as="geometry" />
        </mxCell>
        <mxCell id="9PHeEGNohPRG5MEMTAq7-136" value="" style="line;strokeWidth=1;fillColor=none;align=left;verticalAlign=middle;spacingTop=-1;spacingLeft=3;spacingRight=3;rotatable=0;labelPosition=right;points=[];portConstraint=eastwest;strokeColor=inherit;" vertex="1" parent="9PHeEGNohPRG5MEMTAq7-134">
          <mxGeometry y="70" width="310" height="8" as="geometry" />
        </mxCell>
        <mxCell id="9PHeEGNohPRG5MEMTAq7-137" value="+ getChessPosition(): ChessPosition&lt;div&gt;# isThereOpponentPiece(positon : Position) : boolean&amp;nbsp;&lt;/div&gt;&lt;div&gt;# increaseMoveCount() : void&lt;/div&gt;&lt;div&gt;# decreaseMoveCount() : void&lt;/div&gt;" style="text;strokeColor=none;fillColor=none;align=left;verticalAlign=top;spacingLeft=4;spacingRight=4;overflow=hidden;rotatable=0;points=[[0,0.5],[1,0.5]];portConstraint=eastwest;whiteSpace=wrap;html=1;" vertex="1" parent="9PHeEGNohPRG5MEMTAq7-134">
          <mxGeometry y="78" width="310" height="72" as="geometry" />
        </mxCell>
        <mxCell id="9PHeEGNohPRG5MEMTAq7-138" value="" style="endArrow=open;endFill=1;endSize=12;html=1;rounded=0;exitX=0;exitY=1;exitDx=0;exitDy=0;" edge="1" parent="WIyWlLk6GJQsqaUBKTNV-1" source="9PHeEGNohPRG5MEMTAq7-119">
          <mxGeometry width="160" relative="1" as="geometry">
            <mxPoint x="485" y="635" as="sourcePoint" />
            <mxPoint x="295" y="325" as="targetPoint" />
          </mxGeometry>
        </mxCell>
        <mxCell id="9PHeEGNohPRG5MEMTAq7-139" value="1" style="edgeLabel;html=1;align=center;verticalAlign=middle;resizable=0;points=[];" vertex="1" connectable="0" parent="9PHeEGNohPRG5MEMTAq7-138">
          <mxGeometry x="0.3796" y="1" relative="1" as="geometry">
            <mxPoint x="-26" y="10" as="offset" />
          </mxGeometry>
        </mxCell>
        <mxCell id="9PHeEGNohPRG5MEMTAq7-140" value="&amp;nbsp;- chessMatch" style="edgeLabel;html=1;align=center;verticalAlign=middle;resizable=0;points=[];" vertex="1" connectable="0" parent="9PHeEGNohPRG5MEMTAq7-138">
          <mxGeometry x="0.3796" y="1" relative="1" as="geometry">
            <mxPoint x="34" y="10" as="offset" />
          </mxGeometry>
        </mxCell>
        <mxCell id="9PHeEGNohPRG5MEMTAq7-141" value="" style="endArrow=block;endSize=16;endFill=0;html=1;rounded=0;exitX=0.5;exitY=1;exitDx=0;exitDy=0;entryX=0.123;entryY=-0.007;entryDx=0;entryDy=0;entryPerimeter=0;" edge="1" parent="WIyWlLk6GJQsqaUBKTNV-1" source="9PHeEGNohPRG5MEMTAq7-119" target="9PHeEGNohPRG5MEMTAq7-134">
          <mxGeometry width="160" relative="1" as="geometry">
            <mxPoint x="485" y="435" as="sourcePoint" />
            <mxPoint x="511" y="348" as="targetPoint" />
          </mxGeometry>
        </mxCell>
        <mxCell id="9PHeEGNohPRG5MEMTAq7-142" value="" style="endArrow=block;endSize=16;endFill=0;html=1;rounded=0;exitX=0.475;exitY=1.125;exitDx=0;exitDy=0;exitPerimeter=0;entryX=0.25;entryY=0;entryDx=0;entryDy=0;" edge="1" parent="WIyWlLk6GJQsqaUBKTNV-1" source="9PHeEGNohPRG5MEMTAq7-122" target="9PHeEGNohPRG5MEMTAq7-134">
          <mxGeometry width="160" relative="1" as="geometry">
            <mxPoint x="725" y="289" as="sourcePoint" />
            <mxPoint x="545" y="365" as="targetPoint" />
          </mxGeometry>
        </mxCell>
        <mxCell id="9PHeEGNohPRG5MEMTAq7-143" value="" style="endArrow=block;endSize=16;endFill=0;html=1;rounded=0;exitX=0.5;exitY=1;exitDx=0;exitDy=0;entryX=0.371;entryY=-0.007;entryDx=0;entryDy=0;entryPerimeter=0;" edge="1" parent="WIyWlLk6GJQsqaUBKTNV-1" source="9PHeEGNohPRG5MEMTAq7-123" target="9PHeEGNohPRG5MEMTAq7-134">
          <mxGeometry width="160" relative="1" as="geometry">
            <mxPoint x="753" y="300" as="sourcePoint" />
            <mxPoint x="815" y="405" as="targetPoint" />
          </mxGeometry>
        </mxCell>
        <mxCell id="9PHeEGNohPRG5MEMTAq7-144" value="" style="endArrow=block;endSize=16;endFill=0;html=1;rounded=0;exitX=0.5;exitY=1.125;exitDx=0;exitDy=0;entryX=0.461;entryY=-0.007;entryDx=0;entryDy=0;exitPerimeter=0;entryPerimeter=0;" edge="1" parent="WIyWlLk6GJQsqaUBKTNV-1" source="9PHeEGNohPRG5MEMTAq7-126" target="9PHeEGNohPRG5MEMTAq7-134">
          <mxGeometry width="160" relative="1" as="geometry">
            <mxPoint x="855" y="299" as="sourcePoint" />
            <mxPoint x="896" y="405" as="targetPoint" />
          </mxGeometry>
        </mxCell>
        <mxCell id="9PHeEGNohPRG5MEMTAq7-145" value="" style="endArrow=block;endSize=16;endFill=0;html=1;rounded=0;exitX=0.5;exitY=1;exitDx=0;exitDy=0;" edge="1" parent="WIyWlLk6GJQsqaUBKTNV-1" source="9PHeEGNohPRG5MEMTAq7-127">
          <mxGeometry width="160" relative="1" as="geometry">
            <mxPoint x="955" y="300" as="sourcePoint" />
            <mxPoint x="665" y="349" as="targetPoint" />
          </mxGeometry>
        </mxCell>
        <mxCell id="9PHeEGNohPRG5MEMTAq7-146" value="" style="endArrow=block;endSize=16;endFill=0;html=1;rounded=0;entryX=0.655;entryY=-0.007;entryDx=0;entryDy=0;exitX=0.5;exitY=1;exitDx=0;exitDy=0;entryPerimeter=0;" edge="1" parent="WIyWlLk6GJQsqaUBKTNV-1" source="9PHeEGNohPRG5MEMTAq7-129" target="9PHeEGNohPRG5MEMTAq7-134">
          <mxGeometry width="160" relative="1" as="geometry">
            <mxPoint x="1055" y="299" as="sourcePoint" />
            <mxPoint x="962" y="404" as="targetPoint" />
          </mxGeometry>
        </mxCell>
        <mxCell id="9PHeEGNohPRG5MEMTAq7-147" value="&lt;div&gt;Board&lt;/div&gt;" style="swimlane;fontStyle=1;align=center;verticalAlign=top;childLayout=stackLayout;horizontal=1;startSize=26;horizontalStack=0;resizeParent=1;resizeParentMax=0;resizeLast=0;collapsible=1;marginBottom=0;whiteSpace=wrap;html=1;" vertex="1" parent="WIyWlLk6GJQsqaUBKTNV-1">
          <mxGeometry x="45" y="745" width="310" height="180" as="geometry" />
        </mxCell>
        <mxCell id="9PHeEGNohPRG5MEMTAq7-148" value="- rows : int&lt;div&gt;- columns : int&lt;/div&gt;" style="text;strokeColor=none;fillColor=none;align=left;verticalAlign=top;spacingLeft=4;spacingRight=4;overflow=hidden;rotatable=0;points=[[0,0.5],[1,0.5]];portConstraint=eastwest;whiteSpace=wrap;html=1;" vertex="1" parent="9PHeEGNohPRG5MEMTAq7-147">
          <mxGeometry y="26" width="310" height="34" as="geometry" />
        </mxCell>
        <mxCell id="9PHeEGNohPRG5MEMTAq7-149" value="" style="line;strokeWidth=1;fillColor=none;align=left;verticalAlign=middle;spacingTop=-1;spacingLeft=3;spacingRight=3;rotatable=0;labelPosition=right;points=[];portConstraint=eastwest;strokeColor=inherit;" vertex="1" parent="9PHeEGNohPRG5MEMTAq7-147">
          <mxGeometry y="60" width="310" height="8" as="geometry" />
        </mxCell>
        <mxCell id="9PHeEGNohPRG5MEMTAq7-150" value="+ pieces(row: int, columns : int) Piece&lt;div&gt;+ piece(position: Position) : Piece&amp;nbsp;&lt;/div&gt;&lt;div&gt;+ placePiece(piece: Piece, position : Position) : void&lt;/div&gt;&lt;div&gt;+ removePiece(position : Position) : Piece&lt;/div&gt;&lt;div&gt;+ positionExists(position: Position) : boolean&lt;/div&gt;&lt;div&gt;+ thereIsAPiece(position: Position) : boolean&lt;/div&gt;" style="text;strokeColor=none;fillColor=none;align=left;verticalAlign=top;spacingLeft=4;spacingRight=4;overflow=hidden;rotatable=0;points=[[0,0.5],[1,0.5]];portConstraint=eastwest;whiteSpace=wrap;html=1;" vertex="1" parent="9PHeEGNohPRG5MEMTAq7-147">
          <mxGeometry y="68" width="310" height="112" as="geometry" />
        </mxCell>
        <mxCell id="9PHeEGNohPRG5MEMTAq7-151" value="Piece&lt;div&gt;&lt;br&gt;&lt;/div&gt;" style="swimlane;fontStyle=1;align=center;verticalAlign=top;childLayout=stackLayout;horizontal=1;startSize=26;horizontalStack=0;resizeParent=1;resizeParentMax=0;resizeLast=0;collapsible=1;marginBottom=0;whiteSpace=wrap;html=1;" vertex="1" parent="WIyWlLk6GJQsqaUBKTNV-1">
          <mxGeometry x="535" y="760" width="260" height="120" as="geometry" />
        </mxCell>
        <mxCell id="9PHeEGNohPRG5MEMTAq7-152" value="# position: Position" style="text;strokeColor=none;fillColor=none;align=left;verticalAlign=top;spacingLeft=4;spacingRight=4;overflow=hidden;rotatable=0;points=[[0,0.5],[1,0.5]];portConstraint=eastwest;whiteSpace=wrap;html=1;" vertex="1" parent="9PHeEGNohPRG5MEMTAq7-151">
          <mxGeometry y="26" width="260" height="24" as="geometry" />
        </mxCell>
        <mxCell id="9PHeEGNohPRG5MEMTAq7-153" value="" style="line;strokeWidth=1;fillColor=none;align=left;verticalAlign=middle;spacingTop=-1;spacingLeft=3;spacingRight=3;rotatable=0;labelPosition=right;points=[];portConstraint=eastwest;strokeColor=inherit;" vertex="1" parent="9PHeEGNohPRG5MEMTAq7-151">
          <mxGeometry y="50" width="260" height="8" as="geometry" />
        </mxCell>
        <mxCell id="9PHeEGNohPRG5MEMTAq7-154" value="+ possibleMoves() : boolean [][[]&lt;div&gt;+ possibleMove(position : Position) : boolean&lt;/div&gt;&lt;div&gt;+ isthereAnyPossibleMove() : boolean&lt;/div&gt;" style="text;strokeColor=none;fillColor=none;align=left;verticalAlign=top;spacingLeft=4;spacingRight=4;overflow=hidden;rotatable=0;points=[[0,0.5],[1,0.5]];portConstraint=eastwest;whiteSpace=wrap;html=1;" vertex="1" parent="9PHeEGNohPRG5MEMTAq7-151">
          <mxGeometry y="58" width="260" height="62" as="geometry" />
        </mxCell>
        <mxCell id="9PHeEGNohPRG5MEMTAq7-155" value="" style="rounded=0;whiteSpace=wrap;html=1;" vertex="1" parent="WIyWlLk6GJQsqaUBKTNV-1">
          <mxGeometry x="45" y="955" width="730" height="130" as="geometry" />
        </mxCell>
        <mxCell id="9PHeEGNohPRG5MEMTAq7-156" value="BoardException" style="swimlane;fontStyle=1;align=center;verticalAlign=top;childLayout=stackLayout;horizontal=1;startSize=26;horizontalStack=0;resizeParent=1;resizeParentMax=0;resizeLast=0;collapsible=1;marginBottom=0;whiteSpace=wrap;html=1;" vertex="1" parent="WIyWlLk6GJQsqaUBKTNV-1">
          <mxGeometry x="95" y="990" width="220" height="60" as="geometry" />
        </mxCell>
        <mxCell id="9PHeEGNohPRG5MEMTAq7-157" value="" style="line;strokeWidth=1;fillColor=none;align=left;verticalAlign=middle;spacingTop=-1;spacingLeft=3;spacingRight=3;rotatable=0;labelPosition=right;points=[];portConstraint=eastwest;strokeColor=inherit;" vertex="1" parent="9PHeEGNohPRG5MEMTAq7-156">
          <mxGeometry y="26" width="220" height="8" as="geometry" />
        </mxCell>
        <mxCell id="9PHeEGNohPRG5MEMTAq7-158" value="+ BoardException(msg: String) : void" style="text;strokeColor=none;fillColor=none;align=left;verticalAlign=top;spacingLeft=4;spacingRight=4;overflow=hidden;rotatable=0;points=[[0,0.5],[1,0.5]];portConstraint=eastwest;whiteSpace=wrap;html=1;" vertex="1" parent="9PHeEGNohPRG5MEMTAq7-156">
          <mxGeometry y="34" width="220" height="26" as="geometry" />
        </mxCell>
        <mxCell id="9PHeEGNohPRG5MEMTAq7-159" value="Position" style="swimlane;fontStyle=1;align=center;verticalAlign=top;childLayout=stackLayout;horizontal=1;startSize=26;horizontalStack=0;resizeParent=1;resizeParentMax=0;resizeLast=0;collapsible=1;marginBottom=0;whiteSpace=wrap;html=1;" vertex="1" parent="WIyWlLk6GJQsqaUBKTNV-1">
          <mxGeometry x="445" y="965" width="280" height="110" as="geometry" />
        </mxCell>
        <mxCell id="9PHeEGNohPRG5MEMTAq7-160" value="&lt;div&gt;- row : int&lt;/div&gt;&lt;div&gt;- column : int&lt;/div&gt;" style="text;strokeColor=none;fillColor=none;align=left;verticalAlign=top;spacingLeft=4;spacingRight=4;overflow=hidden;rotatable=0;points=[[0,0.5],[1,0.5]];portConstraint=eastwest;whiteSpace=wrap;html=1;" vertex="1" parent="9PHeEGNohPRG5MEMTAq7-159">
          <mxGeometry y="26" width="280" height="34" as="geometry" />
        </mxCell>
        <mxCell id="9PHeEGNohPRG5MEMTAq7-161" value="" style="line;strokeWidth=1;fillColor=none;align=left;verticalAlign=middle;spacingTop=-1;spacingLeft=3;spacingRight=3;rotatable=0;labelPosition=right;points=[];portConstraint=eastwest;strokeColor=inherit;" vertex="1" parent="9PHeEGNohPRG5MEMTAq7-159">
          <mxGeometry y="60" width="280" height="18" as="geometry" />
        </mxCell>
        <mxCell id="9PHeEGNohPRG5MEMTAq7-162" value="+ setValues(row : int, column : int) : void" style="text;strokeColor=none;fillColor=none;align=left;verticalAlign=top;spacingLeft=4;spacingRight=4;overflow=hidden;rotatable=0;points=[[0,0.5],[1,0.5]];portConstraint=eastwest;whiteSpace=wrap;html=1;" vertex="1" parent="9PHeEGNohPRG5MEMTAq7-159">
          <mxGeometry y="78" width="280" height="32" as="geometry" />
        </mxCell>
        <mxCell id="9PHeEGNohPRG5MEMTAq7-163" value="Board layer" style="text;html=1;align=center;verticalAlign=middle;whiteSpace=wrap;rounded=0;" vertex="1" parent="WIyWlLk6GJQsqaUBKTNV-1">
          <mxGeometry x="25" y="685" width="70" height="30" as="geometry" />
        </mxCell>
        <mxCell id="9PHeEGNohPRG5MEMTAq7-164" value="" style="endArrow=open;html=1;endSize=12;startArrow=diamondThin;startSize=14;startFill=1;edgeStyle=orthogonalEdgeStyle;align=left;verticalAlign=bottom;rounded=0;exitX=0.411;exitY=1.014;exitDx=0;exitDy=0;exitPerimeter=0;entryX=0.5;entryY=0;entryDx=0;entryDy=0;" edge="1" parent="WIyWlLk6GJQsqaUBKTNV-1" source="9PHeEGNohPRG5MEMTAq7-118" target="9PHeEGNohPRG5MEMTAq7-147">
          <mxGeometry x="-1" y="3" relative="1" as="geometry">
            <mxPoint x="485" y="825" as="sourcePoint" />
            <mxPoint x="645" y="825" as="targetPoint" />
          </mxGeometry>
        </mxCell>
        <mxCell id="9PHeEGNohPRG5MEMTAq7-165" value="1" style="edgeLabel;html=1;align=center;verticalAlign=middle;resizable=0;points=[];" vertex="1" connectable="0" parent="9PHeEGNohPRG5MEMTAq7-164">
          <mxGeometry x="0.7622" y="3" relative="1" as="geometry">
            <mxPoint x="-13" y="-3" as="offset" />
          </mxGeometry>
        </mxCell>
        <mxCell id="9PHeEGNohPRG5MEMTAq7-166" value="&amp;nbsp;- board" style="edgeLabel;html=1;align=center;verticalAlign=middle;resizable=0;points=[];" vertex="1" connectable="0" parent="9PHeEGNohPRG5MEMTAq7-164">
          <mxGeometry x="0.7297" y="-4" relative="1" as="geometry">
            <mxPoint x="24" as="offset" />
          </mxGeometry>
        </mxCell>
        <mxCell id="9PHeEGNohPRG5MEMTAq7-167" value="" style="line;strokeWidth=1;fillColor=none;align=left;verticalAlign=middle;spacingTop=-1;spacingLeft=3;spacingRight=3;rotatable=0;labelPosition=right;points=[];portConstraint=eastwest;strokeColor=inherit;" vertex="1" parent="WIyWlLk6GJQsqaUBKTNV-1">
          <mxGeometry x="355" y="816" width="180" height="8" as="geometry" />
        </mxCell>
        <mxCell id="9PHeEGNohPRG5MEMTAq7-168" value="1" style="text;html=1;align=center;verticalAlign=middle;whiteSpace=wrap;rounded=0;" vertex="1" parent="WIyWlLk6GJQsqaUBKTNV-1">
          <mxGeometry x="340" y="794" width="60" height="30" as="geometry" />
        </mxCell>
        <mxCell id="9PHeEGNohPRG5MEMTAq7-169" value="- board" style="text;html=1;align=center;verticalAlign=middle;whiteSpace=wrap;rounded=0;" vertex="1" parent="WIyWlLk6GJQsqaUBKTNV-1">
          <mxGeometry x="350" y="824" width="60" height="30" as="geometry" />
        </mxCell>
        <mxCell id="9PHeEGNohPRG5MEMTAq7-170" value="" style="shape=ellipse;fillColor=#000000;strokeColor=none;html=1;sketch=0;" vertex="1" parent="WIyWlLk6GJQsqaUBKTNV-1">
          <mxGeometry x="525" y="805" width="5" height="4" as="geometry" />
        </mxCell>
        <mxCell id="9PHeEGNohPRG5MEMTAq7-171" value="- pieces" style="text;html=1;align=center;verticalAlign=middle;whiteSpace=wrap;rounded=0;" vertex="1" parent="WIyWlLk6GJQsqaUBKTNV-1">
          <mxGeometry x="475" y="820" width="60" height="30" as="geometry" />
        </mxCell>
      </root>
    </mxGraphModel>
  </diagram>
</mxfile>
